<?xml version="1.0" encoding="utf-8"?>
<!-- Generator: Adobe Illustrator 24.0.1, SVG Export Plug-In . SVG Version: 6.00 Build 0)  -->
<svg version="1.1" id="Camada_1" xmlns="http://www.w3.org/2000/svg" xmlns:xlink="http://www.w3.org/1999/xlink" x="0px" y="0px"
	 viewBox="0 0 201.32 177.63" style="enable-background:new 0 0 201.32 177.63;" xml:space="preserve">
<style type="text/css">
	.st0{fill:#00A9E5;}
	.st1{fill:#00D2FF;}
	.st2{fill:#66DEFF;}
	.st3{fill:#008BE4;}
	.st4{fill:#006AB9;}
	.st5{fill:#FEBD00;}
	.st6{fill:#FFA300;}
	.st7{fill:#172554;}
</style>
<g>
	<g>
		<path class="st0" d="M142.86,82.83c-22.12-13.39-52.04-28.84-87.7-40.74c-6.63,7.53-11.75,16.42-14.85,26.22
			c24.77,12.23,58.92,29.46,86.9,43.65C133.82,101.62,138.92,91.73,142.86,82.83z"/>
		<path class="st1" d="M146.06,81.82c7.35,4.5,13.81,8.75,19.29,12.53c1.45-4.82,2.55-9.41,3.37-13.68
			c0.78-4.09,1.35-8.04,1.75-11.78c-4.99-5.11-9.96-9.89-14.86-14.38c-1.63,6.01-3.76,12.73-6.55,19.95
			C148.15,76.82,147.15,79.28,146.06,81.82z"/>
		<path class="st0" d="M129.47,113.11c8.26,4.19,15.93,8.09,22.6,11.48c5.67-9.54,9.67-18.96,12.49-27.71
			c-5.51-3.82-12.04-8.14-19.53-12.72C141.1,93.02,136.01,102.84,129.47,113.11z"/>
		<path class="st2" d="M112.01,17.27c12.36,8.15,26.9,18.89,42.21,32.59c1.54-6.17,2.52-11.39,3.13-15.38
			C145.04,24.09,129.26,17.7,112.01,17.27z"/>
		<path class="st0" d="M166.73,98.39c-2.84,8.66-6.83,17.94-12.4,27.34c6.11,3.11,11.27,5.73,15.12,7.7
			c5.26-7.26,9.24-15.51,11.57-24.43C177.89,106.53,173.08,102.86,166.73,98.39z"/>
		<path class="st3" d="M138.67,147.18c4.43,1.08,9.01,2.11,13.75,3.09c5.86-4.15,11.08-9.13,15.49-14.79
			c-3.84-1.96-8.92-4.54-14.89-7.58C149.04,134.35,144.31,140.82,138.67,147.18z"/>
		<path class="st3" d="M125.83,114.09C98.04,100,64.24,82.95,39.59,70.77c-1.75,6.27-2.7,12.87-2.7,19.7
			c0,3.77,0.29,7.47,0.84,11.09c10.69,8.67,32.95,23.85,69.92,36.57C114.66,130.04,120.68,121.95,125.83,114.09z"/>
		<path class="st1" d="M171.21,81.04c-0.88,4.61-2.08,9.6-3.68,14.83c6.1,4.27,10.85,7.86,14.12,10.42
			c1.12-5.1,1.73-10.39,1.73-15.82c0-2.77-0.17-5.49-0.47-8.18c-3.39-3.83-6.79-7.52-10.18-11.05
			C172.36,74.39,171.86,77.67,171.21,81.04z"/>
		<path class="st4" d="M105.85,140.17c-34.27-11.92-55.94-25.94-67.46-34.87c5.23,25.45,23.68,46.07,47.84,54.41
			C93.49,153.29,100.01,146.74,105.85,140.17z"/>
		<path class="st4" d="M133.96,148.61c-9.17-2.34-17.66-4.89-25.52-7.54c-5.79,6.57-12.24,13.13-19.42,19.56
			c6.69,2.01,13.78,3.11,21.12,3.11c2.63,0,5.22-0.14,7.78-0.41C123.9,158.56,129.23,153.63,133.96,148.61z"/>
		<path class="st1" d="M143.87,80.49c1.02-2.39,1.97-4.71,2.82-6.94c2.95-7.64,5.15-14.72,6.81-20.95
			c-16.9-15.24-32.91-26.85-46.08-35.32c-19.83,0.72-37.64,9.32-50.4,22.77C92.25,51.92,121.86,67.19,143.87,80.49z"/>
		<path class="st3" d="M150.76,126.75c-6.69-3.4-14.38-7.31-22.67-11.51c-5.08,7.77-10.98,15.76-17.87,23.77
			c7.9,2.64,16.44,5.16,25.67,7.49C141.77,139.99,146.67,133.35,150.76,126.75z"/>
		<path class="st4" d="M122.75,162.62c9.71-1.69,18.75-5.28,26.75-10.38c-4.38-0.93-8.64-1.91-12.76-2.93
			C132.56,153.84,127.92,158.29,122.75,162.62z"/>
		<path class="st2" d="M156.33,51.76c4.76,4.33,9.59,8.95,14.44,13.85c0.49-5.8,0.57-11.04,0.47-15.53
			c-3.32-5.01-7.24-9.6-11.66-13.64C158.9,40.55,157.87,45.74,156.33,51.76z"/>
		<path class="st2" d="M173.09,67.98c3.06,3.15,6.12,6.42,9.18,9.8c-1.47-8.43-4.38-16.35-8.47-23.52
			C173.78,58.39,173.58,63,173.09,67.98z"/>
	</g>
	<g>
		<path class="st5" d="M46.14,127.42c6.59,11.41,3.81,23.23,3.81,23.24c0,0,11.83-2.77,23.24,3.81c0.69,0.4,1.36,0.82,2,1.26
			l53.91-65.25l-28.57-22.48l42.95-43.95l0,0c-8.55-6.66-11.31-15.78-11.31-15.78c0,0-8.85,8.32-22.03,8.32
			c-13.17,0-22.03-8.32-22.03-8.32c0,0-3.51,11.63-14.92,18.22c-11.41,6.59-23.23,3.81-23.24,3.81c0,0,2.77,11.83-3.81,23.24
			c-6.59,11.41-18.22,14.92-18.22,14.92c0,0,8.32,8.85,8.32,22.03c0,13.17-8.32,22.03-8.32,22.03
			C27.93,112.5,39.56,116.01,46.14,127.42z"/>
		<path class="st6" d="M104.13,70.83c-27.82,26.31-54.32,40.28-67.51,46.23c3.25,2.33,6.81,5.68,9.52,10.37
			c6.59,11.41,3.81,23.23,3.81,23.24c0,0,11.83-2.77,23.24,3.81c0.69,0.4,1.36,0.82,2,1.26l53.91-65.25L104.13,70.83z"/>
	</g>
	<path class="st7" d="M154.34,87.98c-0.05-0.42-0.31-0.78-0.68-0.97l-33.81-17.16l30.32-50.91c0.31-0.52,0.21-1.19-0.25-1.59
		c-0.46-0.4-1.13-0.42-1.61-0.05L79.68,70.47c-0.34,0.26-0.52,0.68-0.48,1.11c0.04,0.43,0.29,0.81,0.67,1.01l32.57,16.96
		l-40.98,68.74c-0.32,0.53-0.2,1.22,0.28,1.62c0.23,0.2,0.52,0.29,0.81,0.29c0.3,0,0.6-0.1,0.83-0.31l80.55-70.79
		C154.24,88.81,154.39,88.4,154.34,87.98z"/>
</g>
</svg>
